<?xml version="1.0" standalone="no"?>
<!DOCTYPE svg PUBLIC "-//W3C//DTD SVG 20010904//EN"
 "http://www.w3.org/TR/2001/REC-SVG-20010904/DTD/svg10.dtd">
<svg version="1.0" xmlns="http://www.w3.org/2000/svg"
 width="127.000000pt" height="127.000000pt" viewBox="0 0 127.000000 127.000000"
 preserveAspectRatio="xMidYMid meet">
<metadata>
Created by potrace 1.14, written by Peter Selinger 2001-2017
</metadata>
<g transform="translate(0.000000,127.000000) scale(0.100000,-0.100000)"
fill="#000000" stroke="none">
<path d="M325 1230 c-4 -6 -11 -7 -17 -4 -6 4 -8 -1 -3 -15 5 -18 1 -24 -27
-35 -66 -28 -94 -74 -106 -175 -7 -55 -5 -74 5 -82 7 -7 13 -22 13 -35 0 -33
34 -64 70 -64 l31 0 -18 -25 c-14 -19 -24 -23 -45 -19 -21 4 -30 0 -44 -21
-13 -20 -15 -31 -8 -43 7 -11 5 -26 -7 -51 -9 -20 -21 -55 -27 -78 -7 -35 -6
-47 10 -70 13 -20 17 -39 13 -63 -3 -19 1 -73 9 -120 13 -81 13 -86 -5 -103
-20 -18 -26 -62 -10 -71 5 -3 52 -3 105 1 90 6 97 7 102 30 4 13 0 33 -9 46
-13 20 -13 25 3 45 10 12 22 47 25 77 7 49 10 55 30 55 13 0 26 6 29 13 3 6 3
-13 0 -44 -5 -44 -2 -59 11 -72 9 -10 21 -14 27 -11 10 6 28 -12 28 -29 0 -4
-15 -17 -34 -28 -36 -21 -50 -44 -40 -61 4 -6 10 -5 15 3 7 11 9 10 9 -3 0
-23 12 -29 70 -34 l50 -5 0 46 c0 51 26 87 58 78 24 -6 72 36 72 63 0 15 6 13
28 -14 15 -18 36 -32 48 -32 21 0 74 -35 74 -48 0 -4 -4 -13 -9 -21 -7 -12
-12 -11 -30 1 -25 18 -72 12 -65 -7 3 -7 1 -16 -5 -20 -6 -3 -11 -13 -11 -22
0 -13 9 -15 53 -10 62 6 92 -6 66 -26 -9 -7 -16 -24 -16 -39 0 -23 3 -26 41
-26 22 -1 48 6 57 14 9 8 24 14 35 13 62 -6 73 14 19 37 -23 9 -35 21 -35 34
0 10 -4 22 -10 25 -5 3 -10 11 -10 17 0 7 5 6 14 -1 15 -13 15 -13 56 63 10
20 32 35 70 50 52 21 81 56 46 56 -8 0 -13 -6 -10 -13 3 -8 -10 -20 -31 -30
-48 -23 -57 -21 -20 3 17 11 30 23 30 27 0 5 3 13 7 19 4 6 4 14 0 18 -4 4 -7
13 -7 19 0 7 -3 12 -7 12 -4 0 -14 9 -22 20 -14 19 -15 18 -34 -25 l-19 -45
-7 40 c-4 22 -14 50 -22 63 -11 16 -13 36 -9 66 5 30 2 52 -9 73 -8 17 -13 33
-9 36 3 4 3 12 1 19 -3 7 -6 17 -6 22 0 5 -6 12 -12 16 -7 5 -9 16 -5 29 3 12
11 18 17 15 6 -4 9 -1 6 6 -8 26 -25 21 -38 -11 -13 -30 -14 -30 -21 -10 -7
18 -11 19 -34 9 -14 -6 -25 -15 -25 -20 0 -11 7 -10 31 2 15 8 19 7 19 -4 0
-8 -12 -19 -27 -24 l-28 -10 27 -1 c35 -1 48 -21 13 -21 -17 0 -41 -15 -70
-44 -49 -48 -54 -62 -26 -71 16 -5 17 -11 8 -56 -7 -34 -7 -65 0 -95 9 -38 8
-44 -4 -40 -8 3 -24 1 -36 -5 -16 -9 -22 -9 -25 0 -2 6 -9 8 -14 5 -7 -4 -8
-2 -4 4 4 6 3 20 -3 30 -7 14 -5 21 10 30 25 16 24 30 -7 86 -19 35 -32 46
-50 46 -29 0 -30 5 -4 37 11 14 25 43 30 64 12 45 7 156 -8 171 -8 8 -3 17 15
31 24 19 27 19 38 4 11 -16 13 -16 29 1 9 10 16 28 16 40 0 14 6 22 16 22 19
0 17 26 -12 156 -21 96 -46 116 -152 118 -87 3 -131 -19 -146 -71 l-10 -31
-28 39 c-22 31 -37 40 -69 45 -36 6 -40 9 -35 30 7 25 2 32 -9 14z m239 -105
c-4 -9 1 -18 11 -21 13 -5 14 -9 3 -15 -20 -13 -28 -11 -29 9 0 16 -1 16 -7 0
-5 -11 -12 -14 -20 -9 -12 7 -12 12 -1 30 16 24 52 30 43 6z m126 -19 c0 -3
-4 -8 -10 -11 -5 -3 -10 -1 -10 4 0 6 5 11 10 11 6 0 10 -2 10 -4z m-427 -46
c-3 -20 -1 -30 6 -30 7 0 10 8 7 18 -4 13 0 17 19 19 14 1 36 3 50 4 14 1 25
7 26 13 0 6 4 1 10 -12 5 -13 13 -20 19 -17 5 3 10 -1 10 -10 0 -8 7 -18 15
-21 11 -5 15 -23 15 -77 0 -82 -15 -107 -65 -107 -34 0 -67 -24 -44 -32 8 -3
10 -14 5 -31 -9 -39 -28 -22 -24 22 l3 36 -43 0 c-48 0 -64 16 -59 58 3 21 -1
27 -15 27 -12 0 -18 7 -18 24 0 14 4 27 9 30 5 3 8 -2 7 -11 0 -10 7 -19 18
-21 15 -3 18 0 12 21 -3 14 -9 33 -13 43 -5 12 -3 15 6 9 18 -10 31 12 31 53
0 19 4 31 10 27 5 -3 7 -19 3 -35z m347 10 c0 -11 -4 -20 -9 -20 -5 0 -7 9 -4
20 3 11 7 20 9 20 2 0 4 -9 4 -20z m-25 -17 c0 -13 -3 -23 -7 -23 -5 0 -8 7
-8 15 0 8 -7 15 -15 15 -8 0 -15 3 -15 8 0 4 10 7 23 7 16 0 22 -6 22 -22z
m-65 8 c0 -5 14 -18 32 -29 32 -21 32 -21 30 -96 -3 -71 -1 -76 18 -76 13 0
20 7 20 20 0 11 4 20 9 20 5 0 16 3 24 6 12 4 13 -1 3 -37 -9 -33 -8 -43 2
-46 6 -3 12 -11 12 -18 0 -15 -48 -27 -56 -14 -3 5 4 9 15 9 12 0 21 5 21 11
0 7 -12 10 -30 7 -25 -4 -30 -1 -30 15 0 14 -3 17 -12 9 -7 -6 -26 -12 -43
-15 l-30 -4 33 -2 c45 -2 37 -25 -9 -27 -19 -1 -38 -2 -44 -4 -29 -6 -102 3
-115 16 -12 12 -10 14 17 14 22 0 38 8 51 25 24 30 28 31 35 5 3 -11 11 -20
19 -20 11 0 10 2 -1 9 -13 9 -10 55 6 98 4 11 2 14 -5 9 -7 -4 -12 -2 -12 3 0
6 5 11 11 11 7 0 9 11 5 31 -7 35 2 79 15 79 5 0 9 -4 9 -9z m125 -20 c3 -5 1
-12 -5 -16 -5 -3 -10 1 -10 9 0 18 6 21 15 7z m-30 -11 c-3 -5 -2 -10 3 -10 5
0 15 -20 21 -44 14 -55 14 -56 0 -56 -6 0 -9 7 -6 14 4 10 1 13 -9 9 -17 -6
-19 8 -3 24 8 8 7 17 -5 34 -19 27 -20 39 -5 39 5 0 7 -4 4 -10z m82 -52 c-3
-7 -5 -2 -5 12 0 14 2 19 5 13 2 -7 2 -19 0 -25z m-221 -75 c-10 -10 -19 5
-10 18 6 11 8 11 12 0 2 -7 1 -15 -2 -18z m224 7 c0 -5 -5 -10 -11 -10 -5 0
-7 5 -4 10 3 6 8 10 11 10 2 0 4 -4 4 -10z m-64 -141 c-8 12 -4 14 18 5 39
-15 27 -103 -25 -175 -25 -35 -34 -33 -20 5 8 19 7 26 -1 26 -9 0 -9 3 0 12
25 25 17 27 -98 27 -46 0 -46 0 -46 35 0 33 19 51 49 47 4 -1 24 8 44 19 34
18 39 18 61 4 14 -9 21 -11 18 -5z m-332 -5 c4 -9 -1 -28 -10 -41 -8 -14 -22
-47 -30 -74 -16 -52 -42 -71 -30 -21 4 15 7 35 7 44 0 10 4 20 10 23 5 4 9 11
9 17 0 7 -5 6 -14 -1 -10 -8 -16 -9 -21 -1 -6 9 51 70 66 70 4 0 10 -7 13 -16z
m112 -21 c20 -27 18 -63 -4 -63 -10 0 -23 -5 -29 -11 -19 -19 -22 14 -4 54 18
42 19 43 37 20z m-204 -15 c-7 -7 -12 -8 -12 -2 0 14 12 26 19 19 2 -3 -1 -11
-7 -17z m127 0 c-9 -16 -14 -19 -17 -9 -2 7 2 17 9 22 20 13 21 11 8 -13z
m-42 -50 c-3 -8 -6 -5 -6 6 -1 11 2 17 5 13 3 -3 4 -12 1 -19z m653 -13 c0 -8
-4 -15 -9 -15 -13 0 -22 16 -14 24 11 11 23 6 23 -9z m-747 -54 c-8 -36 -13
-39 -29 -16 -9 12 -11 21 -4 23 5 2 7 8 4 13 -3 6 -3 18 1 27 6 16 8 15 20 -2
9 -12 12 -30 8 -45z m182 39 c14 12 18 11 26 -1 5 -8 9 -24 9 -35 0 -12 3 -36
6 -53 6 -26 3 -31 -13 -31 -10 0 -28 -7 -39 -15 -10 -8 -22 -15 -25 -15 -3 0
-5 38 -5 85 1 70 3 82 13 69 10 -14 15 -15 28 -4z m-89 -36 c-3 -8 -11 -14
-18 -14 -10 0 -10 2 1 9 7 5 10 14 7 20 -4 6 -4 17 1 24 10 15 17 -17 9 -39z
m212 31 c1 -1 -9 -37 -23 -81 -14 -43 -25 -90 -25 -103 0 -48 -13 -10 -16 46
-1 32 -5 80 -8 106 l-6 48 37 -7 c21 -4 39 -8 41 -9z m427 -7 c20 -18 26 -33
27 -65 0 -22 -2 -45 -5 -50 -4 -6 2 -27 13 -49 10 -21 22 -65 26 -97 6 -54 5
-59 -12 -55 -11 2 -18 10 -17 16 2 7 -2 12 -8 12 -7 0 -9 -10 -5 -24 3 -14 1
-28 -4 -31 -7 -4 -7 -12 -2 -18 11 -16 13 -57 2 -57 -14 0 -48 82 -55 133 -4
34 -11 47 -23 47 -12 0 -13 -3 -4 -12 20 -20 14 -38 -14 -38 -19 0 -28 8 -40
35 -18 44 -18 126 0 169 10 24 11 37 3 45 -19 19 30 59 75 60 9 1 29 -9 43
-21z m-371 -33 c-4 -8 -8 -15 -10 -15 -2 0 -4 7 -4 15 0 8 4 15 10 15 5 0 7
-7 4 -15z m243 -21 c-3 -3 -12 -4 -19 -1 -8 3 -5 6 6 6 11 1 17 -2 13 -5z
m-627 -28 c0 -7 -7 -13 -15 -13 -15 0 -20 18 -9 30 9 9 24 -2 24 -17z m110 9
c7 -9 19 -14 27 -11 9 4 13 -4 13 -24 0 -16 5 -32 10 -35 6 -4 8 -16 4 -27 -4
-13 1 -26 15 -39 32 -30 26 -68 -12 -82 -10 -4 -16 -11 -12 -16 3 -6 13 -7 22
-4 18 7 12 -8 -15 -39 -20 -24 -71 -24 -74 0 -5 61 -7 114 -7 162 0 31 -4 67
-9 80 l-9 25 -7 -30 c-7 -32 -1 -129 8 -144 9 -14 -6 -101 -16 -95 -5 3 -7 11
-6 17 1 7 -4 23 -11 37 -11 18 -11 25 -2 28 9 3 7 10 -5 23 -21 23 -29 111
-13 141 25 47 74 63 99 33z m400 -47 c6 -13 16 -31 22 -40 10 -15 10 -21 -5
-35 -16 -16 -17 -16 -17 14 0 18 -4 43 -10 57 -12 32 -3 35 10 4z m-58 -5 c-7
-13 -4 -27 9 -48 l19 -30 1 35 c0 32 1 33 11 13 13 -27 -1 -104 -19 -110 -12
-4 -53 65 -53 91 0 25 19 66 30 66 7 0 8 -6 2 -17z m-197 -40 c9 -37 -7 -49
-44 -33 -37 15 -40 42 -9 64 26 18 43 8 53 -31z m96 -67 c5 -6 9 5 9 30 0 27
3 35 9 25 5 -8 7 -21 3 -29 -3 -9 -1 -13 5 -9 14 9 23 -15 23 -61 1 -33 2 -35
14 -19 12 16 14 14 19 -20 3 -27 0 -42 -11 -50 -25 -20 -32 -6 -32 63 0 36 -4
64 -10 64 -5 0 -10 -24 -10 -54 0 -39 -4 -55 -15 -60 -12 -4 -15 3 -15 32 0
20 -2 66 -4 102 -2 36 -2 49 1 30 2 -19 9 -39 14 -44z m-41 -11 c0 -69 -3 -85
-15 -85 -10 0 -15 10 -15 32 0 30 21 138 27 138 2 0 3 -38 3 -85z m581 2 c-10
-9 -11 -8 -5 6 3 10 9 15 12 12 3 -3 0 -11 -7 -18z m-371 -77 c0 -13 -1 -13
-10 0 -5 8 -10 22 -10 30 0 13 1 13 10 0 5 -8 10 -22 10 -30z m71 17 c-1 -4
-1 -15 -1 -24 -1 -17 -2 -16 -15 1 -8 10 -12 23 -9 28 7 10 26 6 25 -5z m-114
-44 c-3 -10 -5 -2 -5 17 0 19 2 27 5 18 2 -10 2 -26 0 -35z m187 21 c26 -9 45
-18 43 -21 -8 -7 -97 19 -97 28 0 12 -2 12 54 -7z m-278 -62 c-9 -9 -37 8 -31
18 5 8 11 7 21 -1 8 -6 12 -14 10 -17z m352 -14 c2 -10 -1 -18 -7 -18 -6 0
-11 7 -11 16 0 10 -6 14 -15 11 -8 -4 -17 -1 -21 4 -4 7 5 9 22 7 18 -2 30
-10 32 -20z m-665 5 c-7 -2 -19 -2 -25 0 -7 3 -2 5 12 5 14 0 19 -2 13 -5z
m317 -14 c0 -5 -9 -9 -20 -9 -11 0 -20 6 -20 14 0 9 7 12 20 9 11 -3 20 -9 20
-14z m-312 -20 c4 -20 -77 -43 -85 -23 -7 18 7 40 17 25 7 -13 40 -4 40 11 0
15 25 3 28 -13z m36 6 c-4 -8 -10 -15 -15 -15 -5 0 -9 7 -9 15 0 8 7 15 15 15
9 0 12 -6 9 -15z m59 1 c7 -19 -1 -26 -30 -26 -22 0 -31 19 -16 33 11 12 41 7
46 -7z m461 -35 c3 -5 -5 -11 -19 -13 -17 -4 -25 -1 -25 8 0 15 36 19 44 5z
m75 -7 c2 -2 2 -6 -1 -9 -9 -10 -58 6 -52 16 5 9 41 3 53 -7z m63 -39 c2 -12
10 -19 20 -17 9 1 19 -2 23 -8 4 -6 -5 -10 -21 -10 -15 0 -35 -7 -45 -16 -10
-9 -25 -14 -34 -10 -20 7 -10 26 15 26 19 0 36 42 24 63 -5 8 -4 9 4 2 5 -5
12 -19 14 -30z m-37 -5 c-10 -11 -25 -20 -33 -20 -13 0 -12 4 4 19 27 27 53
28 29 1z"/>
<path d="M350 1036 c0 -2 7 -6 15 -10 8 -3 15 -1 15 4 0 6 -7 10 -15 10 -8 0
-15 -2 -15 -4z"/>
<path d="M260 990 c-8 -15 -7 -25 3 -40 12 -18 16 -19 27 -5 13 16 6 65 -10
65 -5 0 -14 -9 -20 -20z"/>
<path d="M337 998 c-7 -20 11 -58 27 -58 17 0 27 45 13 59 -15 15 -34 14 -40
-1z"/>
<path d="M300 920 c0 -5 9 -10 20 -10 11 0 20 5 20 10 0 6 -9 10 -20 10 -11 0
-20 -4 -20 -10z"/>
<path d="M295 891 c-19 -8 -19 -8 2 -15 25 -8 46 0 38 15 -7 10 -13 10 -40 0z"/>
<path d="M515 959 c7 -11 35 -12 35 -1 0 4 -9 8 -20 9 -11 1 -18 -2 -15 -8z"/>
<path d="M900 611 c0 -5 -12 -11 -27 -13 -23 -2 -29 -9 -31 -34 -2 -21 4 -36
18 -49 22 -20 22 -20 41 4 10 13 19 29 19 37 0 8 6 11 15 8 22 -9 18 16 -7 37
-24 22 -28 23 -28 10z m-11 -71 c11 0 12 -3 4 -11 -19 -19 -43 -2 -42 28 0 27
1 28 11 6 6 -13 18 -23 27 -23z"/>
<path d="M935 260 c3 -5 8 -10 11 -10 2 0 4 5 4 10 0 6 -5 10 -11 10 -5 0 -7
-4 -4 -10z"/>
<path d="M620 131 c-17 -5 7 -10 79 -19 57 -7 105 -11 107 -9 20 20 -132 43
-186 28z"/>
<path d="M455 103 c-16 -3 -34 -9 -40 -15 -7 -6 28 -8 105 -6 67 2 114 7 115
13 0 10 -126 16 -180 8z"/>
</g>
</svg>
